Coordinates
version=1
nRows=11
nColumns=42
inDegrees=yes

Units are S.I. units (second, meters, Newtons, ...)
If the header above contains a line with 'inDegrees', this indicates whether rotational values are in degrees (yes) or radians (no).

endheader
time	pelvis_tilt	pelvis_list	pelvis_rotation	pelvis_tx	pelvis_ty	pelvis_tz	hip_flexion_r	hip_adduction_r	hip_rotation_r	knee_angle_r	knee_adduction_r	knee_angle_r_beta	ankle_angle_r	subtalar_angle_r	mtp_angle_r	hip_flexion_l	hip_adduction_l	hip_rotation_l	knee_angle_l	knee_adduction_l	knee_angle_l_beta	ankle_angle_l	subtalar_angle_l	mtp_angle_l	lumbar_extension	lumbar_bending	lumbar_rotation	arm_flex_r	arm_add_r	arm_rot_r	elbow_flex_r	pro_sup_r	wrist_flex_r	wrist_dev_r	arm_flex_l	arm_add_l	arm_rot_l	elbow_flex_l	pro_sup_l	wrist_flex_l	wrist_dev_l
      1.75000000	     10.21243873	      1.90144538	     -1.51173621	     -0.46291423	      0.90977524	      0.19811670	     19.32118882	     -3.44865790	     -1.26555556	     57.01930207	      1.51629409	      0.99517456	      7.00925868	     -7.11160578	     -7.56323208	     -5.45988531	      7.74014821	    -11.51157949	     21.08569575	     -2.44048213	      0.36801482	     21.80610406	     17.42839219	     -7.56323208	    -21.01919117	      0.37352308	     -5.53960860	      0.35120684	    -10.04982704	    -17.74298964	     29.54449037	     90.00000001	      0.00000000	      0.00000000	     -4.45687302	     -9.17512242	    -20.89224647	     39.88014625	     90.00000001	      0.00000000	      0.00000000
      1.76000000	      9.85198017	      1.87218517	     -1.23008569	     -0.45591154	      0.90894968	      0.19779551	     20.26985800	     -3.45951298	     -1.05353056	     54.31036488	      1.94104895	      0.94789469	      7.31658460	     -6.14215667	     -7.56202195	     -5.57319859	      7.86635004	    -11.26950951	     21.03406169	     -2.79461415	      0.36711363	     22.13045834	     17.41696483	     -7.56202195	    -20.77380284	      0.54523768	     -5.91609408	     -0.06997626	    -10.05611825	    -17.82061212	     29.83594248	     90.00000001	      0.00000000	      0.00000000	     -4.25471827	     -9.29118977	    -20.68293121	     39.97214953	     90.00000001	      0.00000000	      0.00000000
      1.77000000	     10.02927447	      1.68926738	     -0.96161207	     -0.44812007	      0.90907773	      0.19780828	     20.24913300	     -3.28177195	     -1.81321874	     51.04925370	      1.63241710	      0.89097756	      8.47243610	     -3.25864324	     -7.55894519	     -6.60998810	      7.55449528	    -11.22984143	     20.59189523	     -2.66316873	      0.35939637	     22.54921596	     18.11471667	     -7.55894519	    -21.04610571	      0.84065106	     -6.13157362	     -0.61388359	    -10.04144156	    -18.15896311	     30.21213690	     90.00000001	      0.00000000	      0.00000000	     -3.99528012	     -9.48247323	    -20.10471419	     39.91318878	     90.00000001	      0.00000000	      0.00000000
      1.78000000	      9.51491951	      2.02214266	     -0.82883249	     -0.44092844	      0.90752733	      0.19794769	     21.49855385	     -3.66416382	     -1.82648023	     48.62381254	      1.77470178	      0.84864562	      8.56572362	     -2.80508035	     -7.55818021	     -6.55292751	      7.88346037	    -11.30577303	     20.59923267	     -2.67575538	      0.35952443	     22.66106274	     18.04057954	     -7.55818021	    -20.56553931	      0.49578857	     -6.38782883	     -1.10232351	     -9.92398126	    -18.17657073	     30.36764431	     90.00000001	      0.00000000	      0.00000000	     -3.86075450	     -9.64387067	    -20.02806989	     40.12181555	     90.00000001	      0.00000000	      0.00000000
      1.79000000	      9.64886882	      1.65914801	     -0.49403256	     -0.43338521	      0.90747988	      0.19781865	     21.15691808	     -3.42570102	     -1.47610555	     44.90611447	      2.65326080	      0.78375955	      9.41297812	     -0.71470021	     -7.55670572	     -7.43848882	      7.50345698	    -11.06521005	     20.30930512	     -2.83930884	      0.35446424	     23.41029928	     18.49064162	     -7.55670572	    -20.85093958	      1.05358524	     -6.58098895	     -1.53411953	     -9.97923664	    -18.46591898	     30.70536286	     90.00000001	      0.00000000	      0.00000000	     -3.47450513	     -9.70563988	    -19.66596118	     39.87889295	     90.00000001	      0.00000000	      0.00000000
      1.80000000	      9.72214626	      1.55098161	     -0.24757750	     -0.42538870	      0.90699884	      0.19808394	     21.15865057	     -3.24072255	     -2.68741758	     41.75217270	      1.96701350	      0.72871288	     10.33142287	      2.42737314	     -7.55378775	     -8.34406102	      7.25494711	    -11.22005406	     19.87683169	     -2.82792262	      0.34691616	     23.72618199	     19.69487729	     -7.55378775	    -20.97462793	      1.23935082	     -6.75425097	     -1.99738183	     -9.85123743	    -18.98947558	     30.92543635	     90.00000001	      0.00000000	      0.00000000	     -3.28435874	     -9.82771209	    -19.37000482	     39.88301416	     90.00000001	      0.00000000	      0.00000000
      1.81000000	      9.58451801	      1.54359852	     -0.04555084	     -0.41772324	      0.90597518	      0.19833956	     21.42342410	     -3.34890290	     -2.91563238	     38.83702373	      2.30178989	      0.67783394	     10.84774940	      4.02653510	     -7.55175106	     -8.84104975	      7.13548578	    -11.18796455	     19.75463221	     -2.78884912	      0.34478337	     24.17395194	     20.07561904	     -7.55175106	    -20.89843798	      1.30493127	     -6.86032325	     -2.45521339	     -9.77609585	    -19.25762606	     31.01949876	     90.00000001	      0.00000000	      0.00000000	     -3.00212172	     -9.88228040	    -19.25607950	     39.81875007	     90.00000001	      0.00000000	      0.00000000
      1.82000000	      9.52042373	      1.53047849	      0.21942428	     -0.40986248	      0.90498972	      0.19854041	     21.56251466	     -3.50378055	     -3.80417301	     36.11059294	      2.34606562	      0.63024874	     11.34691996	      6.27149111	     -7.54796538	     -9.43075402	      6.98662451	    -11.17341739	     19.62342618	     -2.77361911	      0.34249340	     24.60442813	     20.78733636	     -7.54796538	    -20.88351703	      1.39001356	     -7.02250880	     -2.85517816	     -9.64724073	    -19.74519640	     31.06930614	     90.00000001	      0.00000000	      0.00000000	     -2.75467241	     -9.93537168	    -19.18460015	     39.78468590	     90.00000001	      0.00000000	      0.00000000
      1.83000000	      9.43343903	      1.50228799	      0.38914046	     -0.40208122	      0.90391239	      0.19902293	     21.65018906	     -3.65239668	     -4.16413274	     33.50804284	      2.83868090	      0.58482567	     11.59635241	      7.19416621	     -7.54649548	     -9.97669211	      6.78354859	    -11.02258619	     19.54899203	     -2.60783104	      0.34119428	     25.02256876	     20.91773419	     -7.54649548	    -20.85443404	      1.45300443	     -7.05734717	     -3.25046348	     -9.55578635	    -19.97342582	     31.04243801	     90.00000001	      0.00000000	      0.00000000	     -2.45509689	     -9.96280171	    -19.14510254	     39.62947924	     90.00000001	      0.00000000	      0.00000000
      1.84000000	      9.21102451	      1.56237165	      0.61726113	     -0.39432455	      0.90246705	      0.19930907	     21.92350111	     -3.97728614	     -4.67540448	     31.29938859	      3.35653801	      0.54627738	     11.72329746	      7.91092997	     -7.54565361	    -10.30058528	      6.80740824	    -10.73850805	     19.53996825	     -2.70658427	      0.34103678	     25.41761345	     21.05777154	     -7.54565361	    -20.66995520	      1.43619537	     -7.16564933	     -3.64028907	     -9.46432153	    -20.16988474	     30.96517181	     90.00000001	      0.00000000	      0.00000000	     -2.19886715	     -9.98359159	    -19.12288502	     39.54411840	     90.00000001	      0.00000000	      0.00000000
      1.85000000	      9.45775531	      1.35338174	      0.86352483	     -0.38604171	      0.90192142	      0.19990137	     21.40250721	     -3.94268881	     -6.00740810	     29.04566374	      3.52219460	      0.50694247	     11.82299301	      9.40892107	     -7.54407087	    -11.30151598	      6.25790381	    -10.63543543	     19.40581980	     -2.36457782	      0.33869545	     25.80565976	     21.49741541	     -7.54407087	    -20.96017733	      1.71669380	     -7.15314541	     -3.91996578	     -9.30847972	    -20.81010765	     30.77447618	     90.00000001	      0.00000000	      0.00000000	     -1.84793737	     -9.92716772	    -19.23789387	     39.35658516	     90.00000001	      0.00000000	      0.00000000
